<?xml version="1.0" encoding="iso-8859-1"?>
<!-- Generator: Adobe Illustrator 19.0.0, SVG Export Plug-In . SVG Version: 6.00 Build 0)  -->
<svg version="1.1" id="Capa_1" xmlns="http://www.w3.org/2000/svg" xmlns:xlink="http://www.w3.org/1999/xlink" x="0px" y="0px"
	 viewBox="0 0 512.037 512.037" style="enable-background:new 0 0 512.037 512.037;" xml:space="preserve">
<g>
	<g>
		<path d="M509.513,90.419c-9.433-38.068-43.609-64.798-82.829-64.782c-26.712,0.024-51.866,12.58-67.94,33.915
			c-8.164-4.284-16.59-8.05-25.228-11.274c-1.594-1.443-3.681-2.219-5.831-2.167c-42.856-14.654-89.168-15.849-132.722-3.424
			c-10.386,2.982-20.535,6.734-30.363,11.224C150.576,18.461,114.726-3.375,76.792,0.428C38.858,4.231,8.056,32.749,1.348,70.279
			c-6.708,37.529,12.307,74.952,46.575,91.66c0.244,0.134,0.495,0.255,0.751,0.362c1.734,0.83,3.482,1.625,5.278,2.34
			c-26.4,58.071-26.401,124.721,0,182.792c-31.43,12.395-52.564,42.193-53.87,75.953c-1.306,33.76,17.463,65.101,47.842,79.887
			c0.244,0.134,0.495,0.255,0.751,0.363c23.168,11.203,50.186,11.203,73.354,0c0.256-0.108,0.507-0.229,0.751-0.363
			c19.061-9.354,33.972-25.45,41.843-45.17c28.711,13.022,59.869,19.772,91.396,19.801c6.588,0,12.958-0.3,18.796-0.875
			c67.708-5.618,129.087-42.015,166.495-98.731c37.408-56.715,46.7-127.467,25.207-191.919
			C501.205,168.081,518.946,128.487,509.513,90.419z M34.151,128.037c0,0.867,0.174,1.713,0.218,2.576
			c-11.126-12.444-17.279-28.55-17.285-45.243c-0.07-30.429,20.007-57.23,49.229-65.716c29.222-8.486,60.531,3.393,76.77,29.127
			c16.239,25.733,13.486,59.108-6.751,81.832c0.044-0.863,0.218-1.709,0.218-2.576c-0.023-16.803-8.308-32.519-22.158-42.032
			c3.304-5.315,5.066-11.443,5.092-17.701c0-18.851-15.282-34.133-34.133-34.133S51.218,49.452,51.218,68.304
			c0.025,6.258,1.788,12.386,5.092,17.701C42.459,95.518,34.173,111.234,34.151,128.037z M102.418,68.304
			c-0.011,9.421-7.646,17.056-17.067,17.067c-9.426,0-17.067-7.641-17.067-17.067s7.641-17.067,17.067-17.067
			S102.418,58.878,102.418,68.304z M51.218,128.037c0.026-12.486,6.86-23.963,17.824-29.936c10.107,5.783,22.521,5.781,32.627-0.004
			c10.961,5.977,17.791,17.455,17.816,29.94c0.01,7.049-2.212,13.921-6.348,19.629c-8.736,3.932-18.206,5.967-27.785,5.971
			c-9.58-0.004-19.05-2.039-27.785-5.971C53.43,141.958,51.208,135.086,51.218,128.037z M51.218,256.037
			c0.03-29.971,6.647-59.569,19.382-86.7c17.454,3.205,35.476,0.739,51.429-7.036c0.256-0.108,0.507-0.229,0.751-0.362
			c34.27-16.466,53.323-53.791,46.557-91.204c8.352-3.955,16.968-7.328,25.785-10.096c10.476,9.365,12.727,24.894,5.342,36.848
			c-1.488,1.983-3.154,3.85-4.808,5.717c-3.18,3.368-6.02,7.041-8.479,10.967c-11.308,18.859-3.05,40.208,3.583,57.367l0.662,1.717
			c1.928,3.517,2.666,7.563,2.104,11.533c-2.012,3.232-4.755,5.947-8.008,7.925c-12.433,9.625-24.867,19.158-37.521,28.725
			l-0.704,0.55c-9.973,6.78-18.372,15.624-24.629,25.933c-5.458,12.663-7.071,26.652-4.638,40.225
			c1.075,7.956,1.026,16.024-0.146,23.967c-3.425,11.261-9.042,21.733-16.529,30.815c-10.146-2.009-20.581-2.074-30.751-0.191
			C57.865,315.606,51.248,286.008,51.218,256.037z M113.136,488.999c-17.668,7.961-37.903,7.961-55.571,0
			c-4.136-5.708-6.358-12.58-6.348-19.629c0.026-12.486,6.86-23.963,17.824-29.936c10.107,5.783,22.521,5.781,32.627-0.004
			c10.961,5.977,17.791,17.455,17.816,29.94C119.494,476.419,117.272,483.291,113.136,488.999z M68.284,409.637
			c0-9.426,7.641-17.067,17.067-17.067s17.067,7.641,17.067,17.067c-0.011,9.421-7.646,17.056-17.067,17.067
			C75.925,426.704,68.284,419.063,68.284,409.637z M136.333,471.946c0.044-0.863,0.218-1.709,0.218-2.576
			c-0.023-16.803-8.308-32.519-22.158-42.032c3.304-5.315,5.066-11.443,5.092-17.701c0-18.851-15.282-34.133-34.133-34.133
			s-34.133,15.282-34.133,34.133c0.025,6.258,1.788,12.386,5.092,17.701c-13.85,9.513-22.136,25.23-22.158,42.032
			c0,0.867,0.174,1.713,0.218,2.576c-24.393-27.392-22.781-69.163,3.65-94.594c26.431-25.431,68.233-25.431,94.664,0
			C159.114,402.783,160.726,444.555,136.333,471.946z M256.018,460.837c-29.982,0.072-59.601-6.547-86.7-19.377
			c2.428-13.24,1.612-26.872-2.38-39.728c1.694-0.552,3.483-0.758,5.258-0.604c5.432,1.358,10.439,4.051,14.566,7.834
			c5.26,4.366,11.238,7.786,17.667,10.108c7.202,1.833,14.695,2.229,22.05,1.167c3.201-0.376,6.424-0.532,9.646-0.467
			c0.906,0.036,1.804,0.196,2.667,0.475c0.73,0.509,1.364,1.144,1.871,1.875c5.02,7.232,9.023,15.12,11.895,23.442
			c2.032,5.061,4.128,10.203,6.642,15.202C258.133,460.781,257.101,460.837,256.018,460.837z M278.111,459.389
			c-3.894-6.393-7.148-13.154-9.715-20.186c-3.448-9.855-8.278-19.17-14.346-27.667c-3.888-5.464-10.157-8.736-16.862-8.8
			c-4.058-0.101-8.118,0.064-12.154,0.492c-5.18,0.802-10.464,0.644-15.587-0.467c-4.543-1.808-8.764-4.338-12.5-7.492
			c-6.458-5.699-14.345-9.534-22.817-11.092c-4.674-0.469-9.392,0.17-13.772,1.865c-9.255-16.99-23.977-30.357-41.778-37.934
			c7.451-9.648,12.892-20.693,16-32.48c1.557-9.56,1.71-19.296,0.454-28.9c-1.969-10.393-0.998-21.129,2.804-31
			c5.224-8.064,12.033-14.981,20.012-20.333l0.567-0.45c12.575-9.492,25.049-19.039,37.421-28.642
			c5.897-3.706,10.611-9.02,13.588-15.316c2.373-7.963,1.619-16.532-2.108-23.958l-0.642-1.65
			c-5.842-15.108-11.883-30.725-4.829-42.492c1.934-2.985,4.137-5.785,6.583-8.367c1.967-2.217,3.929-4.442,5.875-7.058
			c10.389-15.811,9.939-36.393-1.129-51.736c32.516-6.93,66.231-5.823,98.222,3.224c-21.666,26.699-25.219,63.784-9.018,94.112
			c2.971,5.3,6.529,10.417,9.971,15.358c12.217,17.55,19.267,29.033,10.625,43.467c-4.573,6.927-11.125,12.316-18.804,15.467
			c-13.213,5.742-48.313,20.992-48.629,49.842c-0.113,15.342,9.683,26.908,18.325,37.108c2.442,2.883,4.879,5.75,7.087,8.717
			c10.603,14.706,15.26,32.874,13.038,50.867c-1.339,11.649,4.527,22.944,14.825,28.55c9.842,5.421,22.007,4.215,30.592-3.033
			c0.179-0.15,0.533-0.475,0.7-0.633c11.442-8.319,21.058-18.895,28.254-31.075c5.379-11.919,8.459-24.746,9.079-37.808
			c0.342-12.296,3.439-24.359,9.062-35.3c3.434-6.014,9.341-10.211,16.15-11.475c8.492-1.175,14.225,3.883,22.892,12.109
			c2.442,2.317,4.887,4.625,7.475,6.775c5.793,4.709,12.694,7.858,20.048,9.148C430.236,391.484,361.11,450.055,278.111,459.389z
			 M457.128,294.422c-4.865-0.562-9.467-2.506-13.261-5.602c-2.246-1.867-4.404-3.925-6.575-5.983
			c-8.85-8.4-19.904-18.883-36.804-16.658c-11.915,1.858-22.365,8.971-28.462,19.375c-7.079,13.079-11.032,27.62-11.55,42.483
			c-0.462,10.976-2.932,21.774-7.287,31.858c-6.427,10.273-14.778,19.206-24.596,26.308c-3.23,2.848-7.91,3.337-11.658,1.217
			c-4.212-2.28-6.588-6.916-5.979-11.667c2.688-22.288-3.143-44.769-16.325-62.942c-2.396-3.225-5.063-6.375-7.742-9.542
			c-7.375-8.708-14.346-16.933-14.279-25.925c0.175-15.917,21.979-27.217,38.458-34.383c10.986-4.485,20.285-12.309,26.583-22.367
			c14.712-24.567,0.296-45.275-11.292-61.925c-3.358-4.817-6.525-9.375-9.096-13.958c-13.673-26.4-8.869-58.592,11.915-79.85
			c7.051,2.703,13.946,5.798,20.652,9.271c-20.425,42.204-2.775,92.974,39.425,113.406c0.244,0.134,0.495,0.255,0.751,0.362
			c18.903,9.143,40.539,10.894,60.666,4.909c6.673,20.414,10.096,41.749,10.144,63.226
			C460.814,268.92,459.579,281.774,457.128,294.422z M454.47,173.266c-0.417,0.187-0.81,0.416-1.231,0.594l-0.067,0.01l-0.06,0.037
			c-17.376,7.323-37.015,7.091-54.213-0.641c-4.136-5.708-6.358-12.58-6.348-19.629c0.026-12.486,6.86-23.963,17.824-29.936
			c10.107,5.783,22.521,5.781,32.627-0.004c10.961,5.977,17.791,17.455,17.816,29.94
			C460.828,160.686,458.605,167.558,454.47,173.266z M409.618,93.904c0-9.426,7.641-17.067,17.067-17.067
			s17.067,7.641,17.067,17.067c-0.011,9.421-7.645,17.056-17.067,17.067C417.259,110.97,409.618,103.329,409.618,93.904z
			 M455.726,111.605c3.303-5.315,5.066-11.443,5.092-17.701c0-18.851-15.282-34.133-34.133-34.133s-34.133,15.282-34.133,34.133
			c0.026,6.258,1.788,12.386,5.092,17.701c-13.85,9.513-22.136,25.23-22.158,42.032c0,0.867,0.174,1.713,0.218,2.576
			c-24.393-27.392-22.781-69.163,3.65-94.594c26.431-25.431,68.233-25.431,94.664,0c26.431,25.431,28.043,67.202,3.65,94.594
			c0.044-0.863,0.218-1.709,0.218-2.576C477.862,136.834,469.576,121.118,455.726,111.605z"/>
	</g>
</g>
<g>
</g>
<g>
</g>
<g>
</g>
<g>
</g>
<g>
</g>
<g>
</g>
<g>
</g>
<g>
</g>
<g>
</g>
<g>
</g>
<g>
</g>
<g>
</g>
<g>
</g>
<g>
</g>
<g>
</g>
</svg>
